<svg width="32" height="32" viewBox="0 0 32 32" fill="none" xmlns="http://www.w3.org/2000/svg">
<path d="M9.33333 21.3334C9.86377 21.3334 10.3725 21.1226 10.7475 20.7476C11.1226 20.3725 11.3333 19.8638 11.3333 19.3334C11.3398 19.2668 11.3398 19.1999 11.3333 19.1334L15.0533 15.4134H15.36H15.6667L17.8133 17.56C17.8133 17.56 17.8133 17.6267 17.8133 17.6667C17.8133 18.1971 18.024 18.7058 18.3991 19.0809C18.7742 19.456 19.2829 19.6667 19.8133 19.6667C20.3438 19.6667 20.8525 19.456 21.2275 19.0809C21.6026 18.7058 21.8133 18.1971 21.8133 17.6667V17.56L26.6667 12.6667C27.0622 12.6667 27.4489 12.5494 27.7778 12.3296C28.1067 12.1099 28.363 11.7975 28.5144 11.4321C28.6658 11.0666 28.7054 10.6645 28.6282 10.2765C28.5511 9.88854 28.3606 9.53218 28.0809 9.25247C27.8012 8.97277 27.4448 8.78229 27.0568 8.70512C26.6689 8.62795 26.2668 8.66755 25.9013 8.81893C25.5358 8.9703 25.2235 9.22665 25.0037 9.55555C24.784 9.88444 24.6667 10.2711 24.6667 10.6667C24.6602 10.7332 24.6602 10.8002 24.6667 10.8667L19.8533 15.68H19.64L17.3333 13.3334C17.3333 12.8029 17.1226 12.2942 16.7475 11.9191C16.3725 11.5441 15.8638 11.3334 15.3333 11.3334C14.8029 11.3334 14.2942 11.5441 13.9191 11.9191C13.544 12.2942 13.3333 12.8029 13.3333 13.3334L9.33333 17.3334C8.8029 17.3334 8.29419 17.5441 7.91912 17.9191C7.54405 18.2942 7.33333 18.8029 7.33333 19.3334C7.33333 19.8638 7.54405 20.3725 7.91912 20.7476C8.29419 21.1226 8.8029 21.3334 9.33333 21.3334V21.3334ZM27.3333 26.6667H4.66667V4.00002C4.66667 3.6464 4.52619 3.30726 4.27614 3.05721C4.02609 2.80716 3.68696 2.66669 3.33333 2.66669C2.97971 2.66669 2.64057 2.80716 2.39052 3.05721C2.14048 3.30726 2 3.6464 2 4.00002V28C2 28.3536 2.14048 28.6928 2.39052 28.9428C2.64057 29.1929 2.97971 29.3334 3.33333 29.3334H27.3333C27.687 29.3334 28.0261 29.1929 28.2761 28.9428C28.5262 28.6928 28.6667 28.3536 28.6667 28C28.6667 27.6464 28.5262 27.3073 28.2761 27.0572C28.0261 26.8072 27.687 26.6667 27.3333 26.6667Z" fill="white"/>
</svg>
