<svg width="32" height="32" viewBox="0 0 32 32" fill="none" xmlns="http://www.w3.org/2000/svg">
<path d="M13.3333 22.6667H14.6667V24C14.6667 24.3536 14.8071 24.6928 15.0572 24.9428C15.3072 25.1928 15.6464 25.3333 16 25.3333C16.3536 25.3333 16.6928 25.1928 16.9428 24.9428C17.1928 24.6928 17.3333 24.3536 17.3333 24V22.6667H18.6667C19.0203 22.6667 19.3594 22.5262 19.6095 22.2761C19.8595 22.0261 20 21.6869 20 21.3333C20 20.9797 19.8595 20.6406 19.6095 20.3905C19.3594 20.1405 19.0203 20 18.6667 20H17.3333V18.6667C17.3333 18.313 17.1928 17.9739 16.9428 17.7238C16.6928 17.4738 16.3536 17.3333 16 17.3333C15.6464 17.3333 15.3072 17.4738 15.0572 17.7238C14.8071 17.9739 14.6667 18.313 14.6667 18.6667V20H13.3333C12.9797 20 12.6406 20.1405 12.3905 20.3905C12.1405 20.6406 12 20.9797 12 21.3333C12 21.6869 12.1405 22.0261 12.3905 22.2761C12.6406 22.5262 12.9797 22.6667 13.3333 22.6667V22.6667ZM25.3333 7.99999H22.6667V6.66666C22.6667 5.60579 22.2452 4.58838 21.4951 3.83823C20.7449 3.08808 19.7275 2.66666 18.6667 2.66666H13.3333C12.2725 2.66666 11.255 3.08808 10.5049 3.83823C9.75475 4.58838 9.33332 5.60579 9.33332 6.66666V7.99999H6.66666C5.60579 7.99999 4.58838 8.42142 3.83823 9.17156C3.08808 9.92171 2.66666 10.9391 2.66666 12V25.3333C2.66666 26.3942 3.08808 27.4116 3.83823 28.1618C4.58838 28.9119 5.60579 29.3333 6.66666 29.3333H25.3333C26.3942 29.3333 27.4116 28.9119 28.1618 28.1618C28.9119 27.4116 29.3333 26.3942 29.3333 25.3333V12C29.3333 10.9391 28.9119 9.92171 28.1618 9.17156C27.4116 8.42142 26.3942 7.99999 25.3333 7.99999ZM12 6.66666C12 6.31303 12.1405 5.9739 12.3905 5.72385C12.6406 5.4738 12.9797 5.33332 13.3333 5.33332H18.6667C19.0203 5.33332 19.3594 5.4738 19.6095 5.72385C19.8595 5.9739 20 6.31303 20 6.66666V7.99999H12V6.66666ZM26.6667 25.3333C26.6667 25.6869 26.5262 26.0261 26.2761 26.2761C26.0261 26.5262 25.6869 26.6667 25.3333 26.6667H6.66666C6.31303 26.6667 5.9739 26.5262 5.72385 26.2761C5.4738 26.0261 5.33332 25.6869 5.33332 25.3333V16H26.6667V25.3333ZM26.6667 13.3333H5.33332V12C5.33332 11.6464 5.4738 11.3072 5.72385 11.0572C5.9739 10.8071 6.31303 10.6667 6.66666 10.6667H25.3333C25.6869 10.6667 26.0261 10.8071 26.2761 11.0572C26.5262 11.3072 26.6667 11.6464 26.6667 12V13.3333Z" fill="white"/>
</svg>
