<svg width="32" height="32" viewBox="0 0 32 32" fill="none" xmlns="http://www.w3.org/2000/svg">
<path d="M25.3333 9.33332H21.3333V7.99999C21.3333 6.5855 20.7714 5.22895 19.7712 4.22875C18.7711 3.22856 17.4145 2.66666 16 2.66666C14.5855 2.66666 13.229 3.22856 12.2288 4.22875C11.2286 5.22895 10.6667 6.5855 10.6667 7.99999V9.33332H6.66668C6.31305 9.33332 5.97392 9.4738 5.72387 9.72385C5.47382 9.9739 5.33334 10.313 5.33334 10.6667V25.3333C5.33334 26.3942 5.75477 27.4116 6.50492 28.1618C7.25506 28.9119 8.27248 29.3333 9.33334 29.3333H22.6667C23.7275 29.3333 24.745 28.9119 25.4951 28.1618C26.2452 27.4116 26.6667 26.3942 26.6667 25.3333V10.6667C26.6667 10.313 26.5262 9.9739 26.2762 9.72385C26.0261 9.4738 25.687 9.33332 25.3333 9.33332ZM13.3333 7.99999C13.3333 7.29275 13.6143 6.61447 14.1144 6.11437C14.6145 5.61427 15.2928 5.33332 16 5.33332C16.7073 5.33332 17.3855 5.61427 17.8856 6.11437C18.3857 6.61447 18.6667 7.29275 18.6667 7.99999V9.33332H13.3333V7.99999ZM24 25.3333C24 25.6869 23.8595 26.0261 23.6095 26.2761C23.3594 26.5262 23.0203 26.6667 22.6667 26.6667H9.33334C8.97972 26.6667 8.64058 26.5262 8.39053 26.2761C8.14049 26.0261 8.00001 25.6869 8.00001 25.3333V12H10.6667V13.3333C10.6667 13.6869 10.8072 14.0261 11.0572 14.2761C11.3072 14.5262 11.6464 14.6667 12 14.6667C12.3536 14.6667 12.6928 14.5262 12.9428 14.2761C13.1929 14.0261 13.3333 13.6869 13.3333 13.3333V12H18.6667V13.3333C18.6667 13.6869 18.8072 14.0261 19.0572 14.2761C19.3072 14.5262 19.6464 14.6667 20 14.6667C20.3536 14.6667 20.6928 14.5262 20.9428 14.2761C21.1929 14.0261 21.3333 13.6869 21.3333 13.3333V12H24V25.3333Z" fill="white"/>
</svg>
